<svg width="17" height="18" viewBox="0 0 17 18" fill="none" xmlns="http://www.w3.org/2000/svg">
<path d="M8.38653 0C5.61126 0 3.34334 2.2231 3.34334 4.96028C3.34334 7.13261 4.34095 9.21743 5.40792 11.0711C6.47503 12.925 7.62262 14.5778 7.99672 15.699C8.0508 15.869 8.20846 15.9842 8.38668 15.9842C8.56489 15.9842 8.72255 15.869 8.77663 15.699C9.15074 14.5779 10.2983 12.925 11.3654 11.0711C12.4324 9.21728 13.43 7.1325 13.43 4.96028C13.43 2.22321 11.162 0 8.38682 0H8.38653ZM8.38653 0.818117C10.7277 0.818117 12.6119 2.67355 12.6119 4.96021C12.6119 6.87868 11.6984 8.8572 10.6559 10.6685C9.83345 12.0973 8.95112 13.3913 8.38668 14.5422C7.82224 13.3913 6.93991 12.0973 6.11748 10.6685C5.07491 8.8572 4.16146 6.87894 4.16146 4.96021C4.16146 2.67358 6.04556 0.818117 8.38682 0.818117H8.38653ZM8.38653 2.27545C6.89038 2.27545 5.66346 3.4791 5.66346 4.96013C5.66346 6.44131 6.89038 7.63854 8.38653 7.63854C9.88269 7.63854 11.1096 6.44131 11.1096 4.96013C11.1096 3.4791 9.88269 2.27545 8.38653 2.27545ZM8.38653 3.09371C9.4485 3.09371 10.2913 3.9294 10.2913 4.96013C10.2913 5.99102 9.4485 6.82027 8.38653 6.82027C7.32456 6.82027 6.48175 5.99102 6.48175 4.96013C6.48175 3.9294 7.32456 3.09371 8.38653 3.09371ZM5.0371 12.3367C5.01784 12.3374 4.99858 12.3396 4.9796 12.343C3.58247 12.5504 2.39693 12.8789 1.52143 13.3082C1.0837 13.523 0.723405 13.7655 0.453877 14.0497C0.184495 14.334 0 14.6845 0 15.0661C0 15.5894 0.331732 16.0313 0.792732 16.3764C1.25358 16.7216 1.87041 17.0017 2.62077 17.2394C4.12149 17.7148 6.14855 18 8.38645 18C10.6243 18 12.6516 17.7148 14.1521 17.2394C14.9025 17.0017 15.5193 16.7216 15.9802 16.3764C16.4412 16.0313 16.7729 15.5894 16.7729 15.0661C16.7729 14.6845 16.5884 14.334 16.319 14.0497C16.0495 13.7655 15.6892 13.523 15.2515 13.3082C14.376 12.8789 13.1904 12.5505 11.7933 12.343C11.6857 12.3269 11.576 12.3543 11.4885 12.419C11.4011 12.4837 11.3429 12.5805 11.3267 12.6883C11.3106 12.7959 11.3379 12.9056 11.4026 12.993C11.4674 13.0805 11.5643 13.1387 11.6719 13.1548C13.0104 13.3535 14.1361 13.6719 14.8935 14.0433C15.2723 14.2291 15.5525 14.4308 15.7244 14.6122C15.8964 14.7937 15.9546 14.9389 15.9546 15.066C15.9546 15.2404 15.8409 15.4587 15.4944 15.7181C15.148 15.9775 14.596 16.24 13.9027 16.4596C12.5162 16.8988 10.5542 17.1819 8.38647 17.1819C6.2187 17.1819 4.25643 16.8988 2.87026 16.4596C2.17699 16.24 1.62493 15.9775 1.27851 15.7181C0.932083 15.4587 0.818355 15.2404 0.818355 15.066C0.818355 14.9389 0.876571 14.7937 1.0485 14.6122C1.22043 14.4308 1.50066 14.2291 1.87947 14.0433C2.63681 13.6719 3.76259 13.3534 5.10106 13.1548C5.32365 13.1332 5.48788 12.9374 5.47045 12.7144C5.45305 12.4915 5.26028 12.3234 5.03714 12.3367L5.0371 12.3367Z" fill="#9B9B9B"/>
</svg>
