<svg width="18" height="14" viewBox="0 0 18 14" fill="none" xmlns="http://www.w3.org/2000/svg">
<path fill-rule="evenodd" clip-rule="evenodd" d="M18 5.08705C18 4.56807 17.7938 4.07037 17.4272 3.7035C17.0601 3.33653 16.5624 3.13016 16.0435 3.13016H1.95649C1.43765 3.13016 0.939907 3.33651 0.572805 3.7035C0.206207 4.07037 0 4.56807 0 5.08705V11.3477C0 11.8667 0.206221 12.3644 0.572805 12.7313C0.939907 13.0982 1.43765 13.3046 1.95649 13.3046H16.0435C16.5624 13.3046 17.0601 13.0983 17.4272 12.7313C17.7938 12.3644 18 11.8667 18 11.3477V5.08705ZM17.2174 5.08705V11.3477C17.2174 11.6594 17.0938 11.9579 16.8735 12.1779C16.6535 12.3982 16.3549 12.5216 16.0435 12.5216H1.95649C1.64506 12.5216 1.34645 12.3982 1.12649 12.1779C0.906252 11.9579 0.782568 11.6594 0.782568 11.3477V5.08705C0.782568 4.77535 0.906249 4.47691 1.12649 4.25692C1.34647 4.03655 1.64506 3.91313 1.95649 3.91313H16.0435C16.3549 3.91313 16.6535 4.03655 16.8735 4.25692C17.0937 4.4769 17.2174 4.77535 17.2174 5.08705Z" fill="#9B9B9B"/>
<path fill-rule="evenodd" clip-rule="evenodd" d="M13.841 4.70619C12.6268 4.69767 4.15923 4.69571 4.15923 4.69571C3.66581 4.69571 3.22482 5.00478 3.05618 5.46845C3.055 5.47277 3.05343 5.4767 3.05225 5.48063C2.94259 5.81565 2.67807 6.07819 2.34592 6.19481C2.34435 6.1956 2.34317 6.19599 2.3416 6.19639C1.8833 6.36304 1.57737 6.79814 1.5758 7.28568C1.56519 7.99319 1.56519 8.43693 1.56519 9.1452C1.56519 9.63862 1.87439 10.0796 2.33806 10.2483C2.34238 10.2494 2.34631 10.251 2.35024 10.2522C2.68513 10.3618 2.94767 10.6264 3.06429 10.9585C3.06508 10.9601 3.06547 10.9613 3.06586 10.9628C3.23304 11.4226 3.67013 11.7286 4.15922 11.7286C5.29829 11.7369 13.841 11.7392 13.841 11.7392C14.3344 11.7392 14.7754 11.43 14.9441 10.9664C14.9453 10.962 14.9468 10.9581 14.948 10.9542C15.0577 10.6193 15.3222 10.3568 15.6543 10.2401C15.6559 10.2394 15.6571 10.239 15.6587 10.2386C16.117 10.0718 16.4229 9.63668 16.4245 9.14917C16.4351 8.44167 16.4351 7.99793 16.4351 7.28965C16.4351 6.79624 16.1259 6.35525 15.6622 6.1866C15.6579 6.18542 15.6539 6.18385 15.65 6.18267C15.3151 6.07314 15.0526 5.80863 14.936 5.47634C14.9352 5.47477 14.9348 5.47359 14.9344 5.47202C14.7672 5.01228 14.3301 4.70622 13.841 4.70622V4.70619ZM13.8383 5.48889C12.3189 5.47828 4.15983 5.47828 4.15983 5.47828C3.99658 5.47828 3.85063 5.57969 3.7939 5.73101C3.60773 6.29255 3.16673 6.73515 2.60519 6.93351C2.45688 6.98919 2.35862 7.13121 2.35862 7.28961V7.29551C2.34814 7.99986 2.34814 8.44085 2.34814 9.14483C2.34814 9.30808 2.44941 9.45403 2.60087 9.51076C3.16241 9.69693 3.60501 10.1379 3.80337 10.6995C3.85892 10.8478 4.00094 10.946 4.15947 10.946H4.16261C5.60576 10.9565 13.8407 10.9565 13.8407 10.9565C14.004 10.9565 14.1499 10.8553 14.2067 10.7038C14.3928 10.1423 14.8338 9.69965 15.3954 9.5013C15.5437 9.44575 15.6419 9.30372 15.6419 9.1452V9.1393C15.6524 8.43495 15.6524 7.99396 15.6524 7.28998C15.6524 7.12686 15.5512 6.98091 15.3997 6.92418C14.8382 6.73788 14.3956 6.29687 14.1972 5.73534C14.1416 5.58703 13.9996 5.48889 13.8411 5.48889H13.8383H13.8383Z" fill="#9B9B9B"/>
<path fill-rule="evenodd" clip-rule="evenodd" d="M1.95654 2.34801H16.0436C16.2596 2.34801 16.4349 2.17271 16.4349 1.95666C16.4349 1.74061 16.2596 1.56531 16.0436 1.56531H1.95654C1.74049 1.56531 1.56519 1.74061 1.56519 1.95666C1.56519 2.17271 1.74049 2.34801 1.95654 2.34801Z" fill="#9B9B9B"/>
<path fill-rule="evenodd" clip-rule="evenodd" d="M3.52184 0.782568H14.4782C14.6942 0.782568 14.8695 0.607265 14.8695 0.391217C14.8695 0.1753 14.6942 0 14.4782 0H3.52184C3.3058 0 3.13049 0.175303 3.13049 0.391217C3.13049 0.607265 3.3058 0.782568 3.52184 0.782568Z" fill="#9B9B9B"/>
<path fill-rule="evenodd" clip-rule="evenodd" d="M9.00007 6.2608C7.92009 6.2608 7.04358 7.13732 7.04358 8.21742C7.04358 9.2974 7.92009 10.1739 9.00007 10.1739C10.08 10.1739 10.9566 9.2974 10.9566 8.21742C10.9566 7.13732 10.08 6.2608 9.00007 6.2608ZM9.00007 7.04351C9.64807 7.04351 10.174 7.56942 10.174 8.21742C10.174 8.86543 9.64807 9.39134 9.00007 9.39134C8.35206 9.39134 7.82615 8.86543 7.82615 8.21742C7.82615 7.56942 8.35206 7.04351 9.00007 7.04351Z" fill="#9B9B9B"/>
</svg>
