<svg width="12" height="18" viewBox="0 0 12 18" fill="none" xmlns="http://www.w3.org/2000/svg">
<path fill-rule="evenodd" clip-rule="evenodd" d="M1.51243 18H10.488C11.3219 18 12.0001 17.3216 12.0001 16.4876V1.51229C12.0001 0.67832 11.3219 0 10.488 0H1.51243C0.678598 0 0 0.678355 0 1.51229V16.4876C0 17.3217 0.678633 18 1.51243 18ZM0.750017 1.51247C0.750017 1.09215 1.09214 0.750192 1.51243 0.750192H10.488C10.908 0.750192 11.2501 1.09217 11.2501 1.51247V3.00001H0.750017V1.51247ZM0.750017 3.75002H11.2501V14.25H0.750017V3.75002ZM11.2501 16.4877V15H0.750017V16.4877C0.750017 16.9082 1.09211 17.2502 1.51243 17.2502H10.488C10.908 17.2502 11.2501 16.9082 11.2501 16.4877ZM7.12553 15.7501H4.87547V16.5001H7.12553V15.7501Z" fill="#9B9B9B"/>
</svg>
