<svg width="15" height="19" viewBox="0 0 15 19" fill="none" xmlns="http://www.w3.org/2000/svg">
<path d="M10.3906 12.0257C11.1632 11.1279 11.5919 9.98469 11.6001 8.80008C11.6003 8.59517 11.5892 8.3904 11.5669 8.18668C12.893 7.74377 13.6002 7.12985 13.6002 6.40008C13.6002 5.53101 12.6185 4.89192 11.2066 4.49225L10.794 1.92737C10.5642 0.684377 9.71413 0 8.40016 0H6.00016C4.6862 0 3.83615 0.684377 3.60565 1.93635L3.19436 4.49211C1.7822 4.89175 0.800117 5.53087 0.800117 6.40005C0.800117 7.12982 1.50726 7.74374 2.83343 8.18664C2.81107 8.39035 2.79995 8.59512 2.80022 8.80005C2.80839 9.98465 3.23709 11.1279 4.00971 12.0257C1.53243 12.1564 0 13.4913 0 15.6V18C0 18.1062 0.0420546 18.208 0.117055 18.283C0.192055 18.358 0.293839 18.4 0.400046 18.4H13.9998C14.106 18.4 14.2078 18.358 14.2828 18.283C14.3578 18.208 14.3999 18.1062 14.3999 18V15.6C14.3999 13.4913 12.8676 12.1563 10.3902 12.0257L10.3906 12.0257ZM12.0001 17.6003H2.40012V13.2004C2.40012 13.1929 2.3961 13.1866 2.39583 13.1791C2.65499 13.0683 2.92431 12.9831 3.20007 12.9248V15.6002C3.20007 15.7064 3.24213 15.8082 3.31726 15.8832C3.39226 15.9582 3.49405 16.0003 3.60012 16.0003H10.8001C10.9062 16.0003 11.008 15.9582 11.083 15.8832C11.1581 15.8082 11.2002 15.7064 11.2002 15.6002V12.9248C11.4759 12.9831 11.7452 13.0683 12.0044 13.1791C12.0041 13.1864 12.0001 13.1927 12.0001 13.2002V17.6003ZM4.84366 12.8003C5.52482 13.3092 6.34983 13.5892 7.20012 13.6002C8.05044 13.5892 8.87542 13.3092 9.55658 12.8003L10.4001 12.8142V15.2003H4.0003V12.8142L4.84366 12.8003ZM4.39394 2.07295C4.55331 1.20456 5.06412 0.800366 6.00015 0.800366H8.40016C9.33619 0.800366 9.84698 1.2047 10.0049 2.06397L10.3634 4.29281L10.3633 4.29295C9.3208 4.09446 8.26154 3.99643 7.20016 4.00031C6.13877 3.99643 5.07942 4.09446 4.03675 4.29295L4.39394 2.07295ZM1.6002 6.40015C1.6002 5.74779 3.78149 4.8001 7.20009 4.8001C10.6189 4.8001 12.8 5.74779 12.8 6.40015C12.8 6.6664 12.3569 7.06683 11.39 7.40328C11.1867 6.88632 10.8603 6.42682 10.4392 6.06466C10.3917 6.02141 10.3348 5.99006 10.2728 5.97319C8.2535 5.48489 6.14681 5.48489 4.12738 5.97319C4.06551 5.99006 4.00845 6.0214 3.96104 6.06466C3.53984 6.42679 3.21344 6.88632 3.01016 7.40328C2.04307 7.06685 1.60003 6.66641 1.60003 6.40015H1.6002ZM4.43066 6.72091C6.25301 6.3005 8.14723 6.3005 9.96952 6.72091C10.6696 7.39003 10.8 7.95293 10.8 8.80017C10.8 11.0897 8.89929 12.8003 7.20002 12.8003C5.50075 12.8003 3.60002 11.0897 3.60002 8.80017C3.60002 7.95293 3.73046 7.39003 4.43052 6.72091H4.43066ZM0.800143 15.6002C0.766393 14.8721 1.05983 14.1669 1.60023 13.6777V17.6003H0.800143V15.6002ZM13.6 17.6002L12.8001 17.6003V13.6777C13.3405 14.1669 13.6339 14.8721 13.6002 15.6002L13.6 17.6002Z" fill="#9B9B9B"/>
</svg>
