<svg width="138" height="44" viewBox="0 0 138 44" fill="none" xmlns="http://www.w3.org/2000/svg">
<mask id="path-1-outside-1_2_6029" maskUnits="userSpaceOnUse" x="0" y="0" width="138" height="44" fill="black">
<rect fill="white" width="138" height="44"/>
<path d="M30.3333 14.043L28.129 16.4624C27.7706 15.9785 27.2599 15.5842 26.5968 15.2796C25.9516 14.9749 25.2975 14.8226 24.6344 14.8226C23.7563 14.8226 22.9767 15.0466 22.2957 15.4946C21.6147 15.9247 21.2742 16.5699 21.2742 17.4301C21.2742 17.8602 21.3459 18.2276 21.4892 18.5323C21.6505 18.819 21.9194 19.0789 22.2957 19.3118C22.69 19.5448 23.0573 19.724 23.3978 19.8495C23.7384 19.9749 24.2401 20.1452 24.9032 20.3602C25.5305 20.5573 26.0412 20.7276 26.4355 20.871C26.8477 21.0143 27.3315 21.2473 27.8871 21.5699C28.4606 21.8746 28.9086 22.2061 29.2312 22.5645C29.5717 22.9229 29.8584 23.3978 30.0914 23.9892C30.3423 24.5627 30.4677 25.2079 30.4677 25.9247C30.4677 27.8781 29.8047 29.3835 28.4785 30.4409C27.1702 31.4803 25.5215 32 23.5323 32C22.2599 32 21.0323 31.767 19.8495 31.3011C18.6846 30.8172 17.7348 30.1452 17 29.2849L19.4194 27.0269C19.8853 27.6541 20.5036 28.1649 21.2742 28.5591C22.0448 28.9355 22.8154 29.1237 23.586 29.1237C24.5 29.1237 25.2975 28.8907 25.9785 28.4247C26.6774 27.9588 27.0269 27.2509 27.0269 26.3011C27.0269 25.9785 26.9821 25.6918 26.8925 25.4409C26.8029 25.172 26.6326 24.9301 26.3817 24.7151C26.1487 24.5 25.9427 24.3297 25.7634 24.2043C25.5842 24.0609 25.2616 23.9086 24.7957 23.7473C24.3477 23.5681 24.0251 23.4427 23.828 23.371C23.6308 23.2993 23.2366 23.1738 22.6452 22.9946C21.9642 22.7796 21.3817 22.5556 20.8978 22.3226C20.414 22.0896 19.9122 21.776 19.3925 21.3817C18.8907 20.9695 18.5054 20.4498 18.2366 19.8226C17.9677 19.1774 17.8333 18.4337 17.8333 17.5914C17.8333 15.7814 18.5143 14.4014 19.8763 13.4516C21.2563 12.4839 22.8961 12 24.7957 12C25.7993 12 26.7939 12.1792 27.7796 12.5376C28.7832 12.8781 29.6344 13.3799 30.3333 14.043Z"/>
<path d="M101.541 14.9032L98.9603 16.9462C98.4943 16.3011 97.8581 15.8172 97.0517 15.4946C96.2631 15.1541 95.4567 14.9839 94.6323 14.9839C92.6968 14.9839 91.1108 15.647 89.8742 16.9731C88.6556 18.2993 88.0463 19.957 88.0463 21.9462C88.0463 24.0251 88.6287 25.7186 89.7936 27.0269C90.9764 28.3172 92.5445 28.9624 94.4979 28.9624C96.5051 28.9624 98.0463 28.2276 99.1215 26.7581L101.837 28.6667C100.062 30.8889 97.6072 32 94.471 32C91.4961 32 89.0588 31.0681 87.1592 29.2043C85.2595 27.3226 84.3097 24.9032 84.3097 21.9462C84.3097 18.9534 85.2775 16.552 87.213 14.7419C89.1664 12.914 91.6395 12 94.6323 12C95.9585 12 97.2578 12.2509 98.5302 12.7527C99.8205 13.2366 100.824 13.9534 101.541 14.9032Z"/>
<path d="M110.124 31.5161V12.4839H113.511V20.172H122.409V12.4839H125.796V31.5161H122.409V23.0753H113.511V31.5161H110.124Z"/>
<path fill-rule="evenodd" clip-rule="evenodd" d="M40.0435 31.5161V28.5054H43.4306H53.1349V31.5161H40.0435ZM43.4306 23.129H49.647V20.2796H43.4306H40.0435V23.129H43.4306ZM52.651 15.4409H43.4306H40.0435V12.4839H52.651V15.4409Z"/>
<path fill-rule="evenodd" clip-rule="evenodd" d="M62.6336 31.5161V28.5054H66.0207H75.725V31.5161H62.6336ZM72.2371 23.129H66.0207H62.6336V20.2796H66.0207H72.2371V23.129ZM66.0207 15.4409H75.2411V12.4839H62.6336V15.4409H66.0207Z"/>
</mask>
<path d="M30.3333 14.043L28.129 16.4624C27.7706 15.9785 27.2599 15.5842 26.5968 15.2796C25.9516 14.9749 25.2975 14.8226 24.6344 14.8226C23.7563 14.8226 22.9767 15.0466 22.2957 15.4946C21.6147 15.9247 21.2742 16.5699 21.2742 17.4301C21.2742 17.8602 21.3459 18.2276 21.4892 18.5323C21.6505 18.819 21.9194 19.0789 22.2957 19.3118C22.69 19.5448 23.0573 19.724 23.3978 19.8495C23.7384 19.9749 24.2401 20.1452 24.9032 20.3602C25.5305 20.5573 26.0412 20.7276 26.4355 20.871C26.8477 21.0143 27.3315 21.2473 27.8871 21.5699C28.4606 21.8746 28.9086 22.2061 29.2312 22.5645C29.5717 22.9229 29.8584 23.3978 30.0914 23.9892C30.3423 24.5627 30.4677 25.2079 30.4677 25.9247C30.4677 27.8781 29.8047 29.3835 28.4785 30.4409C27.1702 31.4803 25.5215 32 23.5323 32C22.2599 32 21.0323 31.767 19.8495 31.3011C18.6846 30.8172 17.7348 30.1452 17 29.2849L19.4194 27.0269C19.8853 27.6541 20.5036 28.1649 21.2742 28.5591C22.0448 28.9355 22.8154 29.1237 23.586 29.1237C24.5 29.1237 25.2975 28.8907 25.9785 28.4247C26.6774 27.9588 27.0269 27.2509 27.0269 26.3011C27.0269 25.9785 26.9821 25.6918 26.8925 25.4409C26.8029 25.172 26.6326 24.9301 26.3817 24.7151C26.1487 24.5 25.9427 24.3297 25.7634 24.2043C25.5842 24.0609 25.2616 23.9086 24.7957 23.7473C24.3477 23.5681 24.0251 23.4427 23.828 23.371C23.6308 23.2993 23.2366 23.1738 22.6452 22.9946C21.9642 22.7796 21.3817 22.5556 20.8978 22.3226C20.414 22.0896 19.9122 21.776 19.3925 21.3817C18.8907 20.9695 18.5054 20.4498 18.2366 19.8226C17.9677 19.1774 17.8333 18.4337 17.8333 17.5914C17.8333 15.7814 18.5143 14.4014 19.8763 13.4516C21.2563 12.4839 22.8961 12 24.7957 12C25.7993 12 26.7939 12.1792 27.7796 12.5376C28.7832 12.8781 29.6344 13.3799 30.3333 14.043Z" fill="black"/>
<path d="M101.541 14.9032L98.9603 16.9462C98.4943 16.3011 97.8581 15.8172 97.0517 15.4946C96.2631 15.1541 95.4567 14.9839 94.6323 14.9839C92.6968 14.9839 91.1108 15.647 89.8742 16.9731C88.6556 18.2993 88.0463 19.957 88.0463 21.9462C88.0463 24.0251 88.6287 25.7186 89.7936 27.0269C90.9764 28.3172 92.5445 28.9624 94.4979 28.9624C96.5051 28.9624 98.0463 28.2276 99.1215 26.7581L101.837 28.6667C100.062 30.8889 97.6072 32 94.471 32C91.4961 32 89.0588 31.0681 87.1592 29.2043C85.2595 27.3226 84.3097 24.9032 84.3097 21.9462C84.3097 18.9534 85.2775 16.552 87.213 14.7419C89.1664 12.914 91.6395 12 94.6323 12C95.9585 12 97.2578 12.2509 98.5302 12.7527C99.8205 13.2366 100.824 13.9534 101.541 14.9032Z" fill="black"/>
<path d="M110.124 31.5161V12.4839H113.511V20.172H122.409V12.4839H125.796V31.5161H122.409V23.0753H113.511V31.5161H110.124Z" fill="black"/>
<path fill-rule="evenodd" clip-rule="evenodd" d="M40.0435 31.5161V28.5054H43.4306H53.1349V31.5161H40.0435ZM43.4306 23.129H49.647V20.2796H43.4306H40.0435V23.129H43.4306ZM52.651 15.4409H43.4306H40.0435V12.4839H52.651V15.4409Z" fill="black"/>
<path fill-rule="evenodd" clip-rule="evenodd" d="M62.6336 31.5161V28.5054H66.0207H75.725V31.5161H62.6336ZM72.2371 23.129H66.0207H62.6336V20.2796H66.0207H72.2371V23.129ZM66.0207 15.4409H75.2411V12.4839H62.6336V15.4409H66.0207Z" fill="black"/>
<path d="M37.4306 15.4409V20.2796H49.4306V15.4409H37.4306ZM37.4306 23.129V28.5054H49.4306V23.129H37.4306ZM60.0207 15.4409V20.2796H72.0207V15.4409H60.0207ZM60.0207 23.129V28.5054H72.0207V23.129H60.0207ZM46.0435 28.5054V23.129H34.0435V28.5054H46.0435ZM46.0435 20.2796V15.4409H34.0435V20.2796H46.0435ZM68.6336 20.2796V15.4409H56.6336V20.2796H68.6336ZM68.6336 28.5054V23.129H56.6336V28.5054H68.6336ZM30.3333 14.043L39.2037 22.1249L47.1242 13.4317L38.5925 5.33745L30.3333 14.043ZM28.129 16.4624L18.4863 23.6051L27.1719 35.3306L36.9994 24.5442L28.129 16.4624ZM26.5968 15.2796L21.4727 26.1306L21.5296 26.1574L21.5868 26.1837L26.5968 15.2796ZM22.2957 15.4946L28.7036 25.6405L28.7979 25.5809L28.8911 25.5196L22.2957 15.4946ZM21.4892 18.5323L10.6314 23.6418L10.8168 24.0358L11.0303 24.4154L21.4892 18.5323ZM22.2957 19.3118L15.9795 29.515L16.0845 29.5801L16.1909 29.6429L22.2957 19.3118ZM24.9032 20.3602L21.2012 31.7749L21.2532 31.7917L21.3053 31.8081L24.9032 20.3602ZM26.4355 20.871L22.3346 32.1485L22.4137 32.1773L22.4932 32.2049L26.4355 20.871ZM27.8871 21.5699L21.8615 31.9474L22.0573 32.0611L22.2572 32.1673L27.8871 21.5699ZM29.2312 22.5645L20.3117 30.5921L20.4198 30.7123L20.5312 30.8295L29.2312 22.5645ZM30.0914 23.9892L18.9265 28.3875L19.0082 28.5949L19.0975 28.7991L30.0914 23.9892ZM28.4785 30.4409L35.9434 39.8363L35.9514 39.83L35.9594 39.8236L28.4785 30.4409ZM19.8495 31.3011L15.2462 42.383L15.3483 42.4254L15.4512 42.466L19.8495 31.3011ZM17 29.2849L8.81218 20.5123L0.417442 28.3474L7.87551 37.0788L17 29.2849ZM19.4194 27.0269L29.0523 19.871L21.0463 9.09375L11.2315 18.2542L19.4194 27.0269ZM21.2742 28.5591L15.8085 39.2421L15.9079 39.293L16.0082 39.3419L21.2742 28.5591ZM25.9785 28.4247L19.3221 18.4401L19.2619 18.4802L19.2023 18.521L25.9785 28.4247ZM26.8925 25.4409L15.5083 29.2356L15.5486 29.3567L15.5916 29.4769L26.8925 25.4409ZM26.3817 24.7151L18.2424 33.5327L18.4046 33.6824L18.5722 33.8261L26.3817 24.7151ZM25.7634 24.2043L18.2671 33.5747L18.5671 33.8148L18.8819 34.0351L25.7634 24.2043ZM24.7957 23.7473L20.339 34.889L20.6023 34.9944L20.8704 35.0871L24.7957 23.7473ZM23.828 23.371L19.727 34.6485L19.7271 34.6485L23.828 23.371ZM22.6452 22.9946L19.0316 34.4376L19.0982 34.4587L19.1651 34.4789L22.6452 22.9946ZM20.8978 22.3226L15.6921 33.1346L15.6921 33.1346L20.8978 22.3226ZM19.3925 21.3817L11.7756 30.6544L11.9549 30.8017L12.1398 30.942L19.3925 21.3817ZM18.2366 19.8226L7.15964 24.438L7.18295 24.4939L7.20682 24.5496L18.2366 19.8226ZM19.8763 13.4516L26.7405 23.2945L26.7535 23.2855L26.7664 23.2764L19.8763 13.4516ZM27.7796 12.5376L23.6787 23.8152L23.8009 23.8596L23.924 23.9014L27.7796 12.5376ZM40.0435 31.5161H28.0435V43.5161H40.0435V31.5161ZM40.0435 12.4839V0.483871H28.0435V12.4839H40.0435ZM52.651 12.4839H64.651V0.483871H52.651V12.4839ZM52.651 15.4409V27.4409H64.651V15.4409H52.651ZM49.647 20.2796H61.647V8.27957H49.647V20.2796ZM49.647 23.129V35.129H61.647V23.129H49.647ZM53.1349 28.5054H65.1349V16.5054H53.1349V28.5054ZM53.1349 31.5161V43.5161H65.1349V31.5161H53.1349ZM62.6336 31.5161H50.6336V43.5161H62.6336V31.5161ZM62.6336 12.4839V0.483871H50.6336V12.4839H62.6336ZM75.2411 12.4839H87.2411V0.483871H75.2411V12.4839ZM75.2411 15.4409V27.4409H87.2411V15.4409H75.2411ZM72.2371 20.2796H84.2371V8.27957H72.2371V20.2796ZM72.2371 23.129V35.129H84.2371V23.129H72.2371ZM75.725 28.5054H87.725V16.5054H75.725V28.5054ZM75.725 31.5161V43.5161H87.725V31.5161H75.725ZM101.541 14.9032L108.989 24.3118L118.183 17.0336L111.119 7.67434L101.541 14.9032ZM98.9603 16.9462L89.2321 23.9721L96.5753 34.1396L106.409 26.3548L98.9603 16.9462ZM97.0517 15.4946L92.2944 26.5114L92.4438 26.5759L92.595 26.6363L97.0517 15.4946ZM89.8742 16.9731L81.0976 8.78953L81.0679 8.82146L81.0383 8.85361L89.8742 16.9731ZM89.7936 27.0269L80.8315 35.0069L80.8891 35.0716L80.9477 35.1356L89.7936 27.0269ZM99.1215 26.7581L106.023 16.941L96.3901 10.1696L89.4372 19.6719L99.1215 26.7581ZM101.837 28.6667L111.214 36.1538L119.173 26.1853L108.738 18.8496L101.837 28.6667ZM87.1592 29.2043L78.7142 37.7297L78.7346 37.7499L78.7551 37.77L87.1592 29.2043ZM87.213 14.7419L95.4094 23.5065L95.4122 23.5039L87.213 14.7419ZM98.5302 12.7527L94.1277 23.916L94.2219 23.9531L94.3167 23.9886L98.5302 12.7527ZM110.124 31.5161H98.1239V43.5161H110.124V31.5161ZM110.124 12.4839V0.483871H98.1239V12.4839H110.124ZM113.511 12.4839H125.511V0.483871H113.511V12.4839ZM113.511 20.172H101.511V32.172H113.511V20.172ZM122.409 20.172V32.172H134.409V20.172H122.409ZM122.409 12.4839V0.483871H110.409V12.4839H122.409ZM125.796 12.4839H137.796V0.483871H125.796V12.4839ZM125.796 31.5161V43.5161H137.796V31.5161H125.796ZM122.409 31.5161H110.409V43.5161H122.409V31.5161ZM122.409 23.0753H134.409V11.0753H122.409V23.0753ZM113.511 23.0753V11.0753H101.511V23.0753H113.511ZM113.511 31.5161V43.5161H125.511V31.5161H113.511ZM40.0435 28.5054V16.5054H28.0435V28.5054H40.0435ZM40.0435 23.129H28.0435V35.129H40.0435V23.129ZM40.0435 20.2796V8.27957H28.0435V20.2796H40.0435ZM40.0435 15.4409H28.0435V27.4409H40.0435V15.4409ZM62.6336 23.129H50.6336V35.129H62.6336V23.129ZM62.6336 20.2796V8.27957H50.6336V20.2796H62.6336ZM62.6336 15.4409H50.6336V27.4409H62.6336V15.4409ZM62.6336 28.5054V16.5054H50.6336V28.5054H62.6336ZM21.463 5.96113L19.2587 8.38049L36.9994 24.5442L39.2037 22.1249L21.463 5.96113ZM37.7717 9.31964C35.9803 6.90126 33.7196 5.3462 31.6068 4.37545L21.5868 26.1837C20.8001 25.8223 19.5609 25.0557 18.4863 23.6051L37.7717 9.31964ZM31.7209 4.42859C29.5974 3.42584 27.2015 2.82258 24.6344 2.82258V26.8226C23.3934 26.8226 22.3058 26.524 21.4727 26.1306L31.7209 4.42859ZM24.6344 2.82258C21.6015 2.82258 18.4921 3.63287 15.7003 5.46962L28.8911 25.5196C27.4613 26.4603 25.911 26.8226 24.6344 26.8226V2.82258ZM15.8878 5.34876C11.4504 8.15134 9.27419 12.789 9.27419 17.4301H33.2742C33.2742 18.6026 33.0333 20.2137 32.1422 21.9022C31.2329 23.6249 29.9485 24.8542 28.7036 25.6405L15.8878 5.34876ZM9.27419 17.4301C9.27419 19.1533 9.55745 21.3596 10.6314 23.6418L32.3471 13.4227C33.1343 15.0956 33.2742 16.5671 33.2742 17.4301H9.27419ZM11.0303 24.4154C12.4698 26.9745 14.4511 28.5689 15.9795 29.515L28.6119 9.10864C29.3876 9.58883 30.8312 10.6635 31.9482 12.6491L11.0303 24.4154ZM16.1909 29.6429C17.0544 30.1532 18.0811 30.6791 19.2494 31.1096L27.5463 8.58934C28.0336 8.76888 28.3255 8.93643 28.4005 8.98071L16.1909 29.6429ZM19.2494 31.1096C19.8162 31.3184 20.4977 31.5467 21.2012 31.7749L28.6053 8.94554C27.9826 8.74359 27.6605 8.63142 27.5463 8.58934L19.2494 31.1096ZM21.3053 31.8081C21.8466 31.9782 22.1721 32.0894 22.3346 32.1485L30.5364 9.59344C29.9103 9.36578 29.2144 9.13645 28.5011 8.91229L21.3053 31.8081ZM22.4932 32.2049C22.1839 32.0973 21.9812 32.0035 21.9017 31.9652C21.8172 31.9246 21.8013 31.9124 21.8615 31.9474L33.9127 11.1924C32.9738 10.6472 31.7649 10.0195 30.3777 9.53701L22.4932 32.2049ZM22.2572 32.1673C21.9944 32.0276 21.1896 31.5676 20.3117 30.5921L38.1507 14.5369C36.6276 12.8445 34.9268 11.7215 33.517 10.9725L22.2572 32.1673ZM20.5312 30.8295C19.5531 29.8 19.1046 28.8395 18.9265 28.3875L41.2563 19.591C40.6123 17.9562 39.5903 16.0459 37.9312 14.2995L20.5312 30.8295ZM19.0975 28.7991C18.5952 27.651 18.4677 26.6242 18.4677 25.9247H42.4677C42.4677 23.7916 42.0894 21.4744 41.0853 19.1794L19.0975 28.7991ZM18.4677 25.9247C18.4677 25.5434 18.5349 24.7115 18.9886 23.6816C19.4642 22.6019 20.1923 21.7002 20.9976 21.0581L35.9594 39.8236C40.596 36.1269 42.4677 30.9065 42.4677 25.9247H18.4677ZM21.0136 21.0454C21.5488 20.6201 22.1265 20.3314 22.6531 20.1653C23.1566 20.0066 23.4837 20 23.5323 20V44C27.6962 44 32.1276 42.8681 35.9434 39.8363L21.0136 21.0454ZM23.5323 20C23.633 20 23.7575 20.0097 23.8947 20.0357C24.0319 20.0617 24.1522 20.0985 24.2478 20.1362L15.4512 42.466C18.036 43.4842 20.7557 44 23.5323 44V20ZM24.4527 20.2191C24.8296 20.3757 25.4967 20.7562 26.1245 21.4911L7.87551 37.0788C9.97281 39.5341 12.5396 41.2588 15.2462 42.383L24.4527 20.2191ZM25.1878 38.0576L27.6072 35.7995L11.2315 18.2542L8.81218 20.5123L25.1878 38.0576ZM9.78643 34.1828C11.4661 36.4438 13.5755 38.0997 15.8085 39.2421L26.7399 17.8762C27.4317 18.2301 28.3045 18.8644 29.0523 19.871L9.78643 34.1828ZM16.0082 39.3419C18.2316 40.4278 20.793 41.1237 23.586 41.1237V17.1237C24.8378 17.1237 25.858 17.4431 26.5402 17.7763L16.0082 39.3419ZM23.586 41.1237C26.647 41.1237 29.865 40.3056 32.7547 38.3284L19.2023 18.521C20.73 17.4758 22.353 17.1237 23.586 17.1237V41.1237ZM32.6349 38.4093C37.1526 35.3976 39.0269 30.6493 39.0269 26.3011H15.0269C15.0269 25.3034 15.2145 23.8328 16.0046 22.2323C16.8235 20.5735 18.0333 19.2993 19.3221 18.4401L32.6349 38.4093ZM39.0269 26.3011C39.0269 24.884 38.8315 23.1915 38.1934 21.4048L15.5916 29.4769C15.1327 28.192 15.0269 27.073 15.0269 26.3011H39.0269ZM38.2767 21.6461C37.392 18.9922 35.8154 16.9961 34.1912 15.604L18.5722 33.8261C17.4499 32.8641 16.2137 31.3519 15.5083 29.2356L38.2767 21.6461ZM34.5211 15.8974C34.0512 15.4637 33.4134 14.9114 32.645 14.3735L18.8819 34.0351C18.6606 33.8802 18.501 33.7529 18.4098 33.6776C18.3157 33.5998 18.2588 33.5478 18.2424 33.5327L34.5211 15.8974ZM33.2598 14.8339C31.3605 13.3144 29.3424 12.6226 28.721 12.4075L20.8704 35.0871C20.837 35.0756 20.6077 34.9963 20.263 34.8335C20.0836 34.7488 19.8224 34.6178 19.5098 34.4336C19.2058 34.2544 18.7662 33.974 18.2671 33.5747L33.2598 14.8339ZM29.2524 12.6056C28.7977 12.4237 28.3208 12.236 27.9289 12.0934L19.7271 34.6485C19.7067 34.6411 19.7441 34.6546 19.8684 34.7029C19.983 34.7474 20.138 34.8086 20.339 34.889L29.2524 12.6056ZM27.9289 12.0934C27.3743 11.8918 26.6686 11.675 26.1252 11.5103L19.1651 34.4789C19.4309 34.5595 19.6203 34.6182 19.746 34.6582C19.808 34.678 19.8401 34.6885 19.8484 34.6913C19.8638 34.6965 19.8152 34.6805 19.727 34.6485L27.9289 12.0934ZM26.2587 11.5516C26.1195 11.5077 26.0379 11.4777 26.0053 11.4652C25.9712 11.4521 26.0092 11.4651 26.1036 11.5106L15.6921 33.1346C16.827 33.681 17.9714 34.1028 19.0316 34.4376L26.2587 11.5516ZM26.1036 11.5106C26.2953 11.6029 26.4338 11.6837 26.5186 11.7367C26.5617 11.7636 26.5935 11.7849 26.6139 11.7991C26.6344 11.8133 26.6448 11.8212 26.6451 11.8214L12.1398 30.942C13.1675 31.7216 14.3515 32.4892 15.6921 33.1346L26.1036 11.5106ZM27.0093 12.109C28.0688 12.9793 28.8177 14.0488 29.2663 15.0956L7.20682 24.5496C8.19307 26.8509 9.71255 28.9598 11.7756 30.6544L27.0093 12.109ZM29.3135 15.2072C29.7653 16.2916 29.8333 17.167 29.8333 17.5914H5.83333C5.83333 19.7004 6.17016 22.0632 7.15964 24.438L29.3135 15.2072ZM29.8333 17.5914C29.8333 18.2052 29.7114 19.2807 29.105 20.5095C28.4795 21.7769 27.5849 22.7057 26.7405 23.2945L13.0122 3.60868C8.10657 7.0297 5.83333 12.2725 5.83333 17.5914H29.8333ZM26.7664 23.2764C26.3754 23.5507 25.9475 23.7513 25.5373 23.8723C25.1397 23.9896 24.8695 24 24.7957 24V0C20.7563 0 16.6362 1.06713 12.9862 3.62682L26.7664 23.2764ZM24.7957 24C24.3383 24 23.9475 23.9129 23.6787 23.8152L31.8805 1.26011C29.6403 0.445508 27.2603 0 24.7957 0V24ZM23.924 23.9014C23.4508 23.7408 22.755 23.3944 22.0742 22.7486L38.5925 5.33745C36.5138 3.36543 34.1155 2.01544 31.6351 1.17389L23.924 23.9014ZM40.0435 24.4839H52.651V0.483871H40.0435V24.4839ZM40.651 12.4839V15.4409H64.651V12.4839H40.651ZM52.651 3.44086H43.4306V27.4409H52.651V3.44086ZM43.4306 32.2796H49.647V8.27957H43.4306V32.2796ZM37.647 20.2796V23.129H61.647V20.2796H37.647ZM49.647 11.129H43.4306V35.129H49.647V11.129ZM43.4306 40.5054H53.1349V16.5054H43.4306V40.5054ZM41.1349 28.5054V31.5161H65.1349V28.5054H41.1349ZM53.1349 19.5161H40.0435V43.5161H53.1349V19.5161ZM62.6336 24.4839H75.2411V0.483871H62.6336V24.4839ZM63.2411 12.4839V15.4409H87.2411V12.4839H63.2411ZM75.2411 3.44086H66.0207V27.4409H75.2411V3.44086ZM66.0207 32.2796H72.2371V8.27957H66.0207V32.2796ZM60.2371 20.2796V23.129H84.2371V20.2796H60.2371ZM72.2371 11.129H66.0207V35.129H72.2371V11.129ZM66.0207 40.5054H75.725V16.5054H66.0207V40.5054ZM63.725 28.5054V31.5161H87.725V28.5054H63.725ZM75.725 19.5161H62.6336V43.5161H75.725V19.5161ZM94.0925 5.49468L91.5118 7.53769L106.409 26.3548L108.989 24.3118L94.0925 5.49468ZM108.688 9.92034C106.77 7.26388 104.226 5.43998 101.508 4.3529L92.595 26.6363C91.4902 26.1944 90.2188 25.3383 89.2321 23.9721L108.688 9.92034ZM101.809 4.47788C99.5825 3.51648 97.1614 2.98387 94.6323 2.98387V26.9839C93.7519 26.9839 92.9438 26.7918 92.2944 26.5114L101.809 4.47788ZM94.6323 2.98387C89.6201 2.98387 84.7699 4.85118 81.0976 8.78953L98.6508 25.1567C98.1721 25.6701 97.4844 26.1911 96.6199 26.5525C95.7731 26.9066 95.0541 26.9839 94.6323 26.9839V2.98387ZM81.0383 8.85361C77.5656 12.6327 76.0463 17.2901 76.0463 21.9462H100.046C100.046 22.1873 100.007 22.6975 99.7665 23.351C99.5191 24.0241 99.1408 24.624 98.7102 25.0926L81.0383 8.85361ZM76.0463 21.9462C76.0463 26.3875 77.3557 31.1033 80.8315 35.0069L98.7557 19.0469C99.2548 19.6073 99.6167 20.2504 99.8308 20.8729C100.035 21.4656 100.046 21.8669 100.046 21.9462H76.0463ZM80.9477 35.1356C84.6803 39.2075 89.6137 40.9624 94.4979 40.9624V16.9624C94.8517 16.9624 95.555 17.0241 96.4226 17.381C97.3205 17.7505 98.0803 18.3082 98.6394 18.9182L80.9477 35.1356ZM94.4979 40.9624C99.8785 40.9624 105.216 38.7509 108.806 33.8442L89.4372 19.6719C89.9926 18.9129 90.8531 18.1237 91.9951 17.5793C93.0967 17.0541 94.0261 16.9624 94.4979 16.9624V40.9624ZM92.2204 36.5751L94.9355 38.4837L108.738 18.8496L106.023 16.941L92.2204 36.5751ZM92.4588 21.1796C92.6882 20.8923 93.1207 20.5039 93.717 20.2341C94.2782 19.9801 94.6101 20 94.471 20V44C100.829 44 106.909 41.5467 111.214 36.1538L92.4588 21.1796ZM94.471 20C94.2453 20 94.3702 19.9673 94.6975 20.0925C94.8549 20.1526 95.0228 20.2359 95.1864 20.3414C95.3496 20.4466 95.4756 20.5525 95.5633 20.6386L78.7551 37.77C83.1709 42.1025 88.757 44 94.471 44V20ZM95.6042 20.6789C95.8059 20.8787 96.0389 21.203 96.1921 21.5932C96.3359 21.9594 96.3097 22.1288 96.3097 21.9462H72.3097C72.3097 27.733 74.2878 33.345 78.7142 37.7297L95.6042 20.6789ZM96.3097 21.9462C96.3097 21.75 96.3387 21.9566 96.1658 22.3859C95.9798 22.8473 95.689 23.2451 95.4094 23.5065L79.0165 5.97737C74.329 10.361 72.3097 16.1051 72.3097 21.9462H96.3097ZM95.4122 23.5039C95.3388 23.5726 95.2322 23.6585 95.0946 23.7438C94.9565 23.8293 94.818 23.8951 94.6926 23.9414C94.4304 24.0383 94.3658 24 94.6323 24V0C88.9857 0 83.4604 1.81881 79.0137 5.97997L95.4122 23.5039ZM94.6323 24C94.5335 24 94.4279 23.9902 94.3262 23.9705C94.2252 23.951 94.1569 23.9275 94.1277 23.916L102.933 1.58941C100.303 0.552427 97.5129 0 94.6323 0V24ZM94.3167 23.9886C93.8188 23.8019 92.8233 23.2725 91.9626 22.1321L111.119 7.67434C108.825 4.63426 105.822 2.67118 102.744 1.51674L94.3167 23.9886ZM122.124 31.5161V12.4839H98.1239V31.5161H122.124ZM110.124 24.4839H113.511V0.483871H110.124V24.4839ZM101.511 12.4839V20.172H125.511V12.4839H101.511ZM113.511 32.172H122.409V8.17204H113.511V32.172ZM134.409 20.172V12.4839H110.409V20.172H134.409ZM122.409 24.4839H125.796V0.483871H122.409V24.4839ZM113.796 12.4839V31.5161H137.796V12.4839H113.796ZM125.796 19.5161H122.409V43.5161H125.796V19.5161ZM134.409 31.5161V23.0753H110.409V31.5161H134.409ZM122.409 11.0753H113.511V35.0753H122.409V11.0753ZM101.511 23.0753V31.5161H125.511V23.0753H101.511ZM113.511 19.5161H110.124V43.5161H113.511V19.5161ZM52.0435 31.5161V28.5054H28.0435V31.5161H52.0435ZM43.4306 16.5054H40.0435V40.5054H43.4306V16.5054ZM43.4306 11.129H40.0435V35.129H43.4306V11.129ZM52.0435 23.129V20.2796H28.0435V23.129H52.0435ZM43.4306 8.27957H40.0435V32.2796H43.4306V8.27957ZM52.0435 15.4409V12.4839H28.0435V15.4409H52.0435ZM43.4306 3.44086H40.0435V27.4409H43.4306V3.44086ZM66.0207 11.129H62.6336V35.129H66.0207V11.129ZM74.6336 23.129V20.2796H50.6336V23.129H74.6336ZM66.0207 8.27957H62.6336V32.2796H66.0207V8.27957ZM74.6336 15.4409V12.4839H50.6336V15.4409H74.6336ZM66.0207 3.44086H62.6336V27.4409H66.0207V3.44086ZM74.6336 31.5161V28.5054H50.6336V31.5161H74.6336ZM66.0207 16.5054H62.6336V40.5054H66.0207V16.5054Z" fill="white" mask="url(#path-1-outside-1_2_6029)"/>
</svg>
