<svg width="140" height="28" viewBox="0 0 140 28" fill="none" xmlns="http://www.w3.org/2000/svg">
<path d="M15.0429 5.60753C14.5177 4.87993 13.8049 4.29032 12.9046 3.83871C12.0043 3.36201 10.9914 3.12366 9.86603 3.12366C9.26581 3.12366 8.65309 3.21147 8.02787 3.3871C7.42765 3.53763 6.87746 3.80107 6.37728 4.17742C5.8771 4.52867 5.46445 4.98029 5.13934 5.53226C4.83923 6.05914 4.68918 6.69892 4.68918 7.45161C4.68918 8.17921 4.82673 8.79391 5.10182 9.2957C5.40193 9.7724 5.78957 10.1864 6.26474 10.5376C6.76492 10.8638 7.34012 11.1523 7.99036 11.4032C8.6656 11.629 9.37835 11.8674 10.1286 12.1183C11.0289 12.3943 11.9418 12.7079 12.8671 13.0591C13.7924 13.4104 14.6302 13.8746 15.3805 14.4516C16.1308 15.0287 16.7435 15.7563 17.2187 16.6344C17.6938 17.4875 17.9314 18.5789 17.9314 19.9086C17.9314 21.2885 17.6688 22.4928 17.1436 23.5215C16.6434 24.5251 15.9682 25.3656 15.1179 26.043C14.2676 26.6953 13.2797 27.1846 12.1543 27.5108C11.054 27.8369 9.91604 28 8.74062 28C7.06503 28 5.43944 27.6738 3.86388 27.0215C2.31333 26.3692 1.02537 25.4032 0 24.1237L2.88853 21.6774C3.51376 22.6057 4.35156 23.3584 5.40193 23.9355C6.45231 24.5125 7.59021 24.8011 8.81565 24.8011C9.44088 24.8011 10.0661 24.7133 10.6913 24.5376C11.3165 24.362 11.8792 24.086 12.3794 23.7097C12.9046 23.3333 13.3298 22.8692 13.6549 22.3172C13.98 21.7401 14.1426 21.0502 14.1426 20.2473C14.1426 19.4444 13.9675 18.7796 13.6174 18.2527C13.2923 17.7007 12.8421 17.2366 12.2669 16.8602C11.6917 16.4839 11.0164 16.1702 10.2412 15.9194C9.49089 15.6434 8.69061 15.3674 7.8403 15.0914C6.99 14.8405 6.1522 14.5394 5.3269 14.1882C4.50161 13.8118 3.76385 13.3477 3.11361 12.7957C2.46338 12.2186 1.93819 11.5161 1.53805 10.6882C1.13791 9.86021 0.937835 8.83154 0.937835 7.60215C0.937835 6.2724 1.20043 5.13082 1.72562 4.17742C2.27581 3.22401 2.97606 2.43369 3.82637 1.80645C4.70168 1.17921 5.67703 0.727598 6.75241 0.451612C7.85281 0.150537 8.9532 0 10.0536 0C11.6041 0 13.0547 0.275985 14.4051 0.827955C15.7556 1.37993 16.8435 2.12007 17.6688 3.04839L15.0429 5.60753Z" fill="#171717"/>
<path d="M31.2487 23.7849H46.8918V27.0968H31.2487V0.451612H46.8918V3.7258H31.2487V11.7043H43.1404V14.9032H31.2487V23.7849Z" fill="#171717"/>
<path d="M109.577 23.1828C108.526 24.6129 107.163 25.7796 105.488 26.6828C103.812 27.5609 101.799 28 99.448 28C97.4223 28 95.5466 27.6613 93.821 26.9839C92.1204 26.2814 90.6449 25.3154 89.3944 24.086C88.169 22.8315 87.2062 21.3513 86.5059 19.6452C85.8057 17.914 85.4555 16.0197 85.4555 13.9624C85.4555 11.8799 85.8057 9.98566 86.5059 8.27957C87.2312 6.54839 88.219 5.08064 89.4695 3.87634C90.7449 2.64695 92.2455 1.69355 93.9711 1.01613C95.6967 0.338709 97.5724 0 99.5981 0C100.498 0 101.411 0.0878132 102.337 0.26344C103.262 0.439068 104.15 0.702509 105 1.05376C105.85 1.40502 106.626 1.84409 107.326 2.37097C108.026 2.87276 108.626 3.46237 109.127 4.13978L106.2 6.39785C105.55 5.49462 104.625 4.75448 103.424 4.17742C102.249 3.57527 100.974 3.27419 99.5981 3.27419C98.0475 3.27419 96.647 3.56272 95.3966 4.13978C94.1712 4.69175 93.1208 5.45699 92.2455 6.43548C91.3702 7.41398 90.6949 8.55555 90.2197 9.86021C89.7446 11.1398 89.507 12.5072 89.507 13.9624C89.507 15.4677 89.7321 16.8728 90.1822 18.1774C90.6574 19.4821 91.3201 20.6237 92.1704 21.6021C93.0458 22.5556 94.0961 23.3082 95.3216 23.8602C96.572 24.4122 97.96 24.6882 99.4856 24.6882C100.986 24.6882 102.349 24.3871 103.575 23.7849C104.8 23.1828 105.813 22.3047 106.613 21.1505L109.577 23.1828Z" fill="#171717"/>
<path d="M119.105 0.639784H122.819V11.7796H136.249V0.639784H140V27.2849H136.249V15.0914H122.819V27.2849H119.105V0.639784Z" fill="#171717"/>
<path d="M59.3837 23.9731H75.0268V27.2849H59.3837V0.639784H75.0268V3.91398H59.3837V11.8925H71.2755V15.0914H59.3837V23.9731Z" fill="#171717"/>
</svg>
